<svg xmlns="http://www.w3.org/2000/svg" version="1.1" xmlns:xlink="http://www.w3.org/1999/xlink" xmlns:svgjs="http://svgjs.dev/svgjs" width="2000" height="1500" viewBox="0 0 2000 1500"><rect width="2000" height="1500" fill="#ffffff"></rect><g transform="matrix(0.4697040864255519,0,0,0.4697040864255519,530.1843439180341,250.4048582995951)"><svg viewBox="0 0 232 247" data-background-color="#ffffff" preserveAspectRatio="xMidYMid meet" height="2129" width="2000" xmlns="http://www.w3.org/2000/svg" xmlns:xlink="http://www.w3.org/1999/xlink"><g id="tight-bounds" transform="matrix(1,0,0,1,0.02755368862665364,-0.09999999999999432)"><svg viewBox="0 0 231.94489262274672 247.2" height="247.2" width="231.94489262274672"><g><svg viewBox="0 0 395.52 421.5335069223744" height="247.2" width="231.94489262274672"><g transform="matrix(1,0,0,1,0,310.1618174246575)"><svg viewBox="0 0 395.52 111.37168949771689" height="111.37168949771689" width="395.52"><g id="textblocktransform"><svg viewBox="0 0 395.52 111.37168949771689" height="111.37168949771689" width="395.52" id="textblock"><g><svg viewBox="0 0 395.52 111.37168949771689" height="111.37168949771689" width="395.52"><g transform="matrix(1,0,0,1,0,0)"><svg width="395.52" viewBox="3.75 -36.5 131.39 37" height="111.37168949771689" data-palette-color="#00ebff"><path d="M42.5-15.25L42.5 0 39.1 0 39.1-14.55Q39.1-19.1 37.65-21.25 36.2-23.4 33.35-23.4L33.35-23.4Q30.4-23.4 28.08-21.3 25.75-19.2 24.8-15.9L24.8-15.9 24.8 0 21.4 0 21.4-14.55Q21.4-19.15 20-21.28 18.6-23.4 15.7-23.4L15.7-23.4Q12.8-23.4 10.45-21.35 8.1-19.3 7.15-15.95L7.15-15.95 7.15 0 3.75 0 3.75-26.05 6.85-26.05 6.85-20.15Q8.5-23.2 11.08-24.85 13.65-26.5 16.8-26.5L16.8-26.5Q20.05-26.5 22.05-24.65 24.05-22.8 24.5-19.8L24.5-19.8Q26.3-23.1 28.83-24.8 31.35-26.5 34.55-26.5L34.55-26.5Q36.75-26.5 38.27-25.7 39.8-24.9 40.73-23.43 41.65-21.95 42.08-19.88 42.5-17.8 42.5-15.25L42.5-15.25ZM53.1 0L49.7 0 49.7-26.05 53.1-26.05 53.1 0ZM53.1-31.5L49.7-31.5 49.7-36.5 53.1-36.5 53.1-31.5ZM69.15 0.5L69.15 0.5Q65.95 0.5 63.2-0.55 60.45-1.6 58.45-3.75L58.45-3.75 59.85-6.15Q62.05-4.1 64.27-3.18 66.5-2.25 69-2.25L69-2.25Q72.05-2.25 73.95-3.48 75.84-4.7 75.84-7L75.84-7Q75.84-8.55 74.92-9.38 74-10.2 72.27-10.73 70.55-11.25 68.15-11.85L68.15-11.85Q65.45-12.6 63.62-13.43 61.8-14.25 60.87-15.53 59.95-16.8 59.95-18.85L59.95-18.85Q59.95-21.4 61.22-23.08 62.5-24.75 64.72-25.63 66.95-26.5 69.7-26.5L69.7-26.5Q72.7-26.5 75-25.55 77.3-24.6 78.75-22.9L78.75-22.9 77.09-20.6Q75.7-22.2 73.77-22.98 71.84-23.75 69.5-23.75L69.5-23.75Q67.9-23.75 66.45-23.33 65-22.9 64.07-21.93 63.15-20.95 63.15-19.25L63.15-19.25Q63.15-17.85 63.85-17.07 64.55-16.3 65.95-15.78 67.34-15.25 69.4-14.65L69.4-14.65Q72.34-13.85 74.55-13.03 76.75-12.2 77.95-10.9 79.15-9.6 79.15-7.25L79.15-7.25Q79.15-3.6 76.4-1.55 73.65 0.5 69.15 0.5ZM88.14 0L84.74 0 84.74-26.05 88.14-26.05 88.14 0ZM88.14-31.5L84.74-31.5 84.74-36.5 88.14-36.5 88.14-31.5ZM117.94 0L114.24 0 104.59-13.35 99.04-8.15 99.04 0 95.64 0 95.64-36.5 99.04-36.5 99.04-11.8 113.79-26 117.54-26 106.89-15.35 117.94 0ZM135.14-26.15L135.14-23.05Q131.74-22.95 129.16-21.15 126.59-19.35 125.54-16.2L125.54-16.2 125.54 0 122.14 0 122.14-26.05 125.34-26.05 125.34-19.8Q126.69-22.55 128.91-24.25 131.14-25.95 133.64-26.15L133.64-26.15Q134.14-26.2 134.51-26.2 134.89-26.2 135.14-26.15L135.14-26.15Z" opacity="1" transform="matrix(1,0,0,1,0,0)" fill="#00ebff" class="wordmark-text-0" data-fill-palette-color="primary" id="text-0"></path></svg></g></svg></g></svg></g></svg></g><g transform="matrix(1,0,0,1,75.54432,0)"><svg viewBox="0 0 244.43135999999998 244.43135999999998" height="244.43135999999998" width="244.43135999999998"><g><svg viewBox="0 0 244.43135999999998 244.43135999999998" height="244.43135999999998" width="244.43135999999998"><g transform="matrix(1,0,0,1,64.60265593644992,76.60281990198254)"><svg viewBox="0 0 115.22604812710014 91.22572019603491" height="91.22572019603491" width="115.22604812710014"><g><svg xmlns:dc="http://purl.org/dc/elements/1.1/" xmlns:cc="http://creativecommons.org/ns#" xmlns:rdf="http://www.w3.org/1999/02/22-rdf-syntax-ns#" xmlns:svg="http://www.w3.org/2000/svg" xmlns="http://www.w3.org/2000/svg" version="1.1" viewBox="5 14.374096488778218 90.00518225188205 71.2580853527703" xml:space="preserve" x="0" y="0" height="91.22572019603491" width="115.22604812710014" class="icon-cg-0" data-fill-palette-color="accent" id="cg-0"><path d="M58.531 14.375C57.782 14.413 57.117 14.978 57 15.75l-0.563 3.75c-2.793 0.153-5.479 0.839-7.937 1.969l-2.25-3.063C45.72 17.688 44.718 17.533 44 18.063L39.375 21.5c-0.718 0.53-0.874 1.532-0.344 2.25l2.25 3.063c-1.806 2.015-3.247 4.377-4.219 6.999l-3.75-0.593c-0.883-0.133-1.71 0.492-1.843 1.375l-0.844 5.687c-0.133 0.883 0.461 1.71 1.344 1.844l3.75 0.562c0.038 0.695 0.116 1.383 0.218 2.063l0.344 0c2.185-0.059 4.36 0.208 6.469 0.719-0.538-1.999-0.704-4.135-0.375-6.313 1.275-8.443 9.151-14.275 17.594-13 8.443 1.275 14.275 9.151 13 17.594-0.513 3.394-2.121 6.371-4.375 8.625 2.254 0.308 4.494 0.725 6.656 1.406 0.183 0.035 0.355 0.076 0.531 0.125 1.011-1.47 1.864-3.094 2.5-4.812l3.75 0.562c0.883 0.133 1.71-0.461 1.844-1.344L84.719 42.625C84.852 41.742 84.258 40.915 83.375 40.781l-3.75-0.562c-0.153-2.793-0.839-5.48-1.969-7.938l3.063-2.25c0.718-0.53 0.874-1.532 0.344-2.25l-3.438-4.625c-0.53-0.718-1.532-0.874-2.25-0.343l-3.062 2.25c-2.015-1.805-4.377-3.248-7-4.219l0.562-3.75C66.008 16.211 65.414 15.383 64.531 15.25l-5.687-0.844C58.733 14.39 58.638 14.37 58.531 14.375zM5 45.906L5 76.875l10.313 0-0.001-30.969-10.312 0z m30.438 1.407c-5.977-0.005-12.335 1.126-17.25 2.718l0 22.032c1.913 0.551 3.421 0.824 5.375 1.218 5.676 1.148 10.429 5.016 15.718 7.344 4.554 2.004 9.063 4.908 14.125 5 7.727 0.141 15.278-1.819 22.875-3.031 6.139-0.98 11.697-6.394 15.813-10.844 3.727-4.031 3.429-6.482 1.594-9.281-2.058-3.139-7.143-1.292-9.844 1.031-3.116 2.682-6.82 4.859-11.094 5.313-6.792 0.72-14.293 1.055-20.188-2.782 2.682-1.324 6.435-0.268 9.532-0.25 4.337 0.026 8.775 1.295 13.031 0.438 4.362-0.879 4.699-8.27 0.125-9.781-6.583-2.175-13.595-1.753-20.188-3.5C50.106 51.624 45.811 48.315 40.625 47.625 38.959 47.403 37.215 47.314 35.438 47.313zM10.156 70.219c1.25 0 2.281 1.031 2.281 2.281 0 1.25-1.031 2.25-2.281 2.25-1.25 0-2.25-1-2.25-2.25 0-1.25 1-2.281 2.25-2.281z" fill="#00ebff" fill-opacity="1" fill-rule="evenodd" stroke="none" marker="none" visibility="visible" display="inline" overflow="visible" text-indent="0" text-transform="none" direction="ltr" block-progression="tb" baseline-shift="baseline" color="#00ebff" enable-background="accumulate" data-fill-palette-color="accent"></path></svg></g></svg></g><g><path d="M32.395 60.201l12.782 5.678-1.266 2.852-12.192-5.416c-2.541-1.129-4.594-1.558-6.158-1.288-1.561 0.279-2.695 1.216-3.403 2.809v0c-0.733 1.649-0.8 3.384-0.201 5.204 0.598 1.82 1.7 3.404 3.304 4.75v0l13.328 5.921-1.267 2.852-12.192-5.416c-2.572-1.143-4.625-1.587-6.16-1.334-1.535 0.254-2.661 1.19-3.38 2.809v0c-0.722 1.624-0.801 3.346-0.239 5.165 0.562 1.819 1.663 3.413 3.301 4.781v0l13.364 5.937-1.263 2.843-21.827-9.697 1.152-2.593 4.938 2.193c-1.294-1.68-2.08-3.444-2.357-5.29-0.286-1.844-0.037-3.648 0.747-5.415v0c0.806-1.815 1.974-3.05 3.502-3.704 1.531-0.661 3.19-0.745 4.976-0.254v0c-1.4-1.823-2.261-3.649-2.583-5.479-0.319-1.836-0.082-3.646 0.711-5.431v0c0.547-1.231 1.232-2.175 2.054-2.833 0.826-0.65 1.767-1.05 2.821-1.201 1.054-0.151 2.213-0.089 3.476 0.185 1.267 0.283 2.611 0.74 4.032 1.372z" fill="#00ebff" data-fill-palette-color="accent"></path><path d="M71.274 42.8l-2.539 1.797-13.799-19.495 2.539-1.797zM54.587 19.225l-2.539 1.797-2.649-3.743 2.539-1.797z" fill="#00ebff" data-fill-palette-color="accent"></path><path d="M109.515 29.887v0c-1.936 0.3-3.781 0.263-5.536-0.113-1.761-0.374-3.349-1.119-4.761-2.235v0l0.931-2.362c1.523 1.031 2.999 1.722 4.43 2.072 1.431 0.35 2.901 0.409 4.411 0.174v0c1.843-0.286 3.282-0.891 4.318-1.814 1.03-0.916 1.437-2.069 1.221-3.46v0c-0.144-0.931-0.535-1.603-1.171-2.015-0.636-0.412-1.498-0.698-2.586-0.856-1.094-0.157-2.394-0.303-3.9-0.438v0c-1.7-0.2-3.141-0.463-4.323-0.791-1.182-0.328-2.112-0.834-2.791-1.519-0.679-0.685-1.114-1.646-1.305-2.884v0c-0.238-1.537-0.05-2.871 0.565-4.001 0.615-1.131 1.553-2.067 2.814-2.808 1.262-0.734 2.725-1.23 4.389-1.488v0c1.81-0.281 3.454-0.243 4.933 0.114 1.479 0.357 2.738 0.982 3.776 1.877v0l-1.175 2.308c-0.995-0.834-2.11-1.393-3.347-1.678-1.238-0.292-2.565-0.328-3.982-0.108v0c-0.971 0.151-1.873 0.423-2.704 0.818-0.838 0.396-1.491 0.93-1.959 1.602-0.467 0.679-0.621 1.53-0.462 2.555v0c0.131 0.845 0.446 1.471 0.945 1.877 0.491 0.401 1.184 0.695 2.079 0.883 0.893 0.182 1.991 0.359 3.292 0.532v0c1.851 0.204 3.48 0.452 4.888 0.744 1.408 0.293 2.536 0.775 3.382 1.448 0.847 0.673 1.381 1.721 1.602 3.145v0c0.342 2.202-0.223 4.051-1.695 5.546-1.465 1.494-3.558 2.453-6.279 2.875z" fill="#00ebff" data-fill-palette-color="accent"></path><path d="M152.724 33.066l-2.995-0.84 6.447-22.998 2.995 0.84zM160.521 5.254l-2.996-0.839 1.238-4.415 2.995 0.84z" fill="#00ebff" data-fill-palette-color="accent"></path><path d="M196.321 62.823l-2.501-2.294 1.754-15-6.973 0.072-5.052 5.508-2.292-2.103 22.622-24.665 2.293 2.103-15.312 16.694 18.779-0.454 2.531 2.321-13.798 0.596z" fill="#00ebff" data-fill-palette-color="accent"></path><path d="M237.353 91.773l-2.678 0.968c-0.764-1.936-1.93-3.458-3.498-4.566-1.572-1.1-3.373-1.626-5.404-1.58v0l-13.97 5.051-1.058-2.925 22.462-8.121 0.995 2.755-5.385 1.947c1.864 0.207 3.515 0.773 4.953 1.699 1.437 0.926 2.476 2.087 3.116 3.481v0c0.128 0.276 0.231 0.521 0.309 0.736 0.078 0.215 0.13 0.4 0.158 0.555z" fill="#00ebff" data-fill-palette-color="accent"></path><path d="M36.792 188.269l-13.115 5.9-1.314-2.92 12.507-5.626c2.61-1.174 4.345-2.453 5.207-3.837 0.852-1.387 0.911-2.898 0.176-4.531v0c-0.76-1.689-2.041-2.928-3.844-3.719-1.803-0.791-3.773-1.034-5.909-0.731v0l-13.668 6.149-1.313-2.92 12.507-5.626c2.64-1.188 4.387-2.457 5.241-3.808 0.854-1.351 0.908-2.856 0.162-4.514v0c-0.749-1.664-2.012-2.904-3.789-3.722-1.78-0.823-3.754-1.076-5.922-0.757v0l-13.714 6.169-1.313-2.92 22.399-10.076 1.197 2.662-5.075 2.283c2.175 0.158 4.069 0.765 5.68 1.819 1.608 1.048 2.819 2.475 3.631 4.28v0c0.84 1.867 0.985 3.61 0.437 5.23-0.546 1.626-1.62 2.955-3.224 3.985v0c2.355 0.181 4.347 0.776 5.975 1.787 1.628 1.01 2.854 2.43 3.677 4.259v0c0.569 1.265 0.819 2.437 0.751 3.516-0.068 1.079-0.403 2.075-1.004 2.987-0.61 0.909-1.455 1.755-2.535 2.536-1.077 0.773-2.347 1.488-3.808 2.145z" fill="#00ebff" data-fill-palette-color="accent"></path><path d="M57.887 226.61l-2.623-1.837 14.091-20.117 2.622 1.836zM74.926 202.282l-2.622-1.837 2.7-3.854 2.622 1.836z" fill="#00ebff" data-fill-palette-color="accent"></path><path d="M106.076 244.244v0c-1.984-0.301-3.781-0.908-5.393-1.821-1.612-0.912-2.938-2.132-3.979-3.658v0l1.647-2.038c1.171 1.479 2.405 2.613 3.702 3.402 1.298 0.783 2.722 1.292 4.273 1.528v0c1.897 0.288 3.492 0.142 4.786-0.438 1.301-0.585 2.06-1.59 2.276-3.015v0c0.147-0.965-0.031-1.748-0.532-2.348-0.495-0.6-1.253-1.144-2.275-1.633-1.022-0.489-2.25-1.033-3.685-1.632v0c-1.607-0.721-2.94-1.424-4-2.11-1.054-0.684-1.807-1.466-2.259-2.345-0.459-0.88-0.591-1.959-0.397-3.237v0c0.241-1.584 0.836-2.835 1.786-3.754 0.95-0.918 2.159-1.545 3.626-1.88 1.467-0.335 3.057-0.373 4.767-0.113v0c1.864 0.283 3.463 0.829 4.798 1.638 1.341 0.81 2.381 1.809 3.119 2.997v0l-1.863 1.913c-0.715-1.123-1.634-2.019-2.759-2.687-1.125-0.661-2.417-1.103-3.874-1.324v0c-0.992-0.151-1.961-0.162-2.907-0.033-0.938 0.123-1.743 0.443-2.413 0.961-0.664 0.519-1.077 1.307-1.238 2.366v0c-0.132 0.872-0.019 1.58 0.341 2.125 0.366 0.546 0.961 1.048 1.783 1.507 0.816 0.458 1.834 0.97 3.056 1.537v0c1.755 0.777 3.275 1.526 4.562 2.246 1.293 0.721 2.252 1.541 2.875 2.459 0.622 0.925 0.822 2.117 0.601 3.575v0c-0.345 2.27-1.469 3.91-3.373 4.922-1.905 1.018-4.255 1.315-7.051 0.89z" fill="#00ebff" data-fill-palette-color="accent"></path><path d="M159.427 239.452l-3.083 0.865-6.636-23.647 3.082-0.865zM151.401 210.855l-3.082 0.865-1.272-4.531 3.083-0.865z" fill="#00ebff" data-fill-palette-color="accent"></path><path d="M212.856 204.108l-2.578 2.359-15.2-3.15-0.561 7.152 5.187 5.671-2.362 2.16-23.224-25.387 2.362-2.161 15.713 17.176 1.228-19.26 2.608-2.386-0.631 14.183z" fill="#00ebff" data-fill-palette-color="accent"></path><path d="M214.414 149.158l2.742 1c-0.67 2.035-0.75 4.005-0.241 5.91 0.507 1.912 1.578 3.517 3.212 4.814v0l14.346 5.229-1.096 3.008-23.076-8.411 1.034-2.837 5.541 2.02c-1.335-1.39-2.266-2.925-2.792-4.608-0.522-1.674-0.574-3.273-0.154-4.796v0c0.074-0.303 0.152-0.564 0.232-0.786 0.081-0.221 0.165-0.402 0.252-0.543z" fill="#00ebff" data-fill-palette-color="accent"></path><path d="M2.275 124.62c0-7.061 5.724-12.785 12.785-12.784 7.061 0 12.785 5.724 12.785 12.784 0 7.061-5.724 12.785-12.785 12.785-7.061 0-12.785-5.724-12.785-12.785z" fill="#00ebff" data-fill-palette-color="accent"></path><path d="M216.587 124.62c0-7.061 5.724-12.785 12.785-12.784 7.061 0 12.785 5.724 12.785 12.784 0 7.061-5.724 12.785-12.785 12.785-7.061 0-12.785-5.724-12.785-12.785z" fill="#00ebff" data-fill-palette-color="accent"></path></g></svg></g></svg></g><g></g></svg></g><defs></defs></svg><rect width="231.94489262274672" height="247.2" fill="none" stroke="none" visibility="hidden"></rect></g></svg></g></svg>